<svg xmlns="http://www.w3.org/2000/svg" version="1.1" xmlns:xlink="http://www.w3.org/1999/xlink" xmlns:svgjs="http://svgjs.dev/svgjs" width="1000" height="625" viewBox="0 0 1000 625"><g transform="matrix(1,0,0,1,0,0)"><svg viewBox="0 0 512 320" data-background-color="#ffffff" preserveAspectRatio="xMidYMid meet" height="625" width="1000" xmlns="http://www.w3.org/2000/svg" xmlns:xlink="http://www.w3.org/1999/xlink"><g id="tight-bounds" transform="matrix(1,0,0,1,0,0)"><svg viewBox="0 0 512 320" height="320" width="512"><g><svg></svg></g><g><svg viewBox="0 0 512 320" height="320" width="512"><g><path xmlns="http://www.w3.org/2000/svg" d="M152.026 320l-64.26-197.771 168.234-122.229 168.234 122.229-64.26 197.771z" fill="#61777f" fill-rule="nonzero" stroke="none" stroke-width="1" stroke-linecap="butt" stroke-linejoin="miter" stroke-miterlimit="10" stroke-dasharray="" stroke-dashoffset="0" font-family="none" font-weight="none" font-size="none" text-anchor="none" style="mix-blend-mode: normal" data-fill-palette-color="tertiary"></path></g><g transform="matrix(1,0,0,1,196.7944752829447,80)"><svg viewBox="0 0 118.41104943411065 160" height="160" width="118.41104943411065"><g><svg viewBox="0 0 118.41104943411065 160" height="160" width="118.41104943411065"><g><svg viewBox="0 0 204.8 276.7309314172882" height="160" width="118.41104943411065"><g transform="matrix(1,0,0,1,0,139.90215585564815)"><svg viewBox="0 0 204.8 136.82877556164007" height="136.82877556164007" width="204.8"><g id="textblocktransform"><svg viewBox="0 0 204.8 136.82877556164007" height="136.82877556164007" width="204.8" id="textblock"><g><svg viewBox="0 0 204.8 98.36102088167053" height="98.36102088167053" width="204.8"><g transform="matrix(1,0,0,1,0,0)"><svg width="204.8" viewBox="-0.4000000059604645 -31.049999237060547 64.6500015258789 31.049999237060547" height="98.36102088167053" data-palette-color="#ffffff"><path d="M27.6-31.05L33.65 0 19.15 0 18.35-4.75 14.45-4.75 13.6 0-0.4 0 5.65-31.05 27.6-31.05ZM15.65-11.4L17.25-11.4 17.25-17.6 15.65-17.6 15.65-11.4ZM64.25-31.05L64.25 0 50.05 0 50.05-10.9 48.45-10.9 48.45 0 34.25 0 34.25-31.05 48.45-31.05 48.45-19.5 50.05-19.5 50.05-31.05 64.25-31.05Z" opacity="1" transform="matrix(1,0,0,1,0,0)" fill="#ffffff" class="wordmark-text-0" data-fill-palette-color="quaternary" id="text-0"></path></svg></g></svg></g><g transform="matrix(1,0,0,1,0,121.58169724733177)"><svg viewBox="0 0 204.8 15.247078314308302" height="15.247078314308302" width="204.8"><g transform="matrix(1,0,0,1,0,0)"><svg width="204.8" viewBox="2.700000047683716 -34.75 482.855712890625 35.95000076293945" height="15.247078314308302" data-palette-color="#ffffff"><path d="M3.65 0.05Q3 0.05 2.75-0.95L2.75-0.95Q2.7-1.1 2.7-1.45L2.7-1.45Q2.7-1.95 2.9-2.95L2.9-2.95Q3-3.6 3.08-3.98 3.15-4.35 3.2-4.55L3.2-4.55Q4.7-11.6 6.15-16.95L6.15-16.95 9.65-32.75Q9.65-32.85 9.8-33.05 9.95-33.25 10.15-33.3L10.15-33.3 10.4-33.3Q10.4-33.25 10.55-33.25L10.55-33.25Q11.15-33.25 11.9-33.4L11.9-33.4Q12.65-33.55 13.25-33.55L13.25-33.55Q14.35-33.55 15.3-33.4L15.3-33.4Q15.75-33.4 16.3-33.35 16.85-33.3 17.45-33.3L17.45-33.3Q17.65-33.3 17.9-33.4L17.9-33.4 18.8-33.4 19.95-33.4 21.15-33.45Q21.5-33.5 22-33.5L22-33.5Q22.4-33.5 22.4-33.55L22.4-33.55 23.2-33.55 24.9-33.55 27-33.55Q29.8-33.55 30.7-33.45L30.7-33.45Q30.85-33.45 31.13-33.43 31.4-33.4 31.45-33.3L31.45-33.3Q31.8-33.3 32.15-33.35 32.5-33.4 32.8-33.4L32.8-33.4Q33.5-33.55 34.15-33.55L34.15-33.55Q34.45-33.55 34.75-33.4L34.75-33.4Q35.05-33.25 35.4-33.25L35.4-33.25 35.65-33.3 35.8-33.3Q35.95-33.2 36.13-33.02 36.3-32.85 36.3-32.75L36.3-32.75 39.8-16.95Q41.4-11.1 42.7-4.55L42.7-4.55Q42.7-4.25 42.9-3.9L42.9-3.9Q42.95-3.55 43.05-2.95 43.15-2.35 43.15-1.95L43.15-1.95Q43.2-1.75 43.2-1.4L43.2-1.4Q43.2-0.7 42.9-0.25L42.9-0.25Q42.7 0.05 42.3 0.05L42.3 0.05 41.65 0.05Q40.9 0.05 40.5 0L40.5 0 39.2 0 37.95 0 36.95 0Q36.55 0 36.55-0.05L36.55-0.05 33.4-0.05 33.4-0.15Q33.2-0.25 32.9-0.25L32.9-0.25Q32.9-0.25 32.88-0.23 32.85-0.2 32.8-0.15L32.8-0.15Q32.8-0.05 32.7-0.05L32.7-0.05 32.55-0.05 32.15-0.05Q31.9-0.15 31.15-0.15L31.15-0.15Q29.65-0.25 28.8-0.25L28.8-0.25Q28.5-0.7 28.18-2.05 27.85-3.4 27.5-5.05L27.5-5.05Q27.4-5.85 27.3-6.15L27.3-6.15Q26.25-5.95 24.55-5.95L24.55-5.95 23-5.95 21.55-5.95 21.2-4.35Q20.55-1.05 20.15-0.25L20.15-0.25Q19.95-0.25 19.65-0.15L19.65-0.15Q19.55-0.1 19.48-0.08 19.4-0.05 19.4-0.05L19.4-0.05 19.2-0.05Q18.9-0.05 18.75-0.15L18.75-0.15Q18.65-0.25 18.5-0.25L18.5-0.25 16.25-0.15 15.45-0.15 14.7-0.15Q14.5-0.05 14.2-0.05L14.2-0.05 14-0.05 9.4-0.05 8.95-0.05Q8.4 0 6.7 0L6.7 0 5.4 0Q5 0.05 4.25 0.05L4.25 0.05 3.65 0.05ZM26.75-12.2Q26.4-14.65 26.4-14.65L26.4-14.65Q26.25-15.35 25.9-17.3L25.9-17.3Q25.8-17.8 25.4-20L25.4-20Q25-22.4 25-22.4L25-22.4Q24.85-23.4 24.7-24.15L24.7-24.15 24.65-24.8Q24.5-25.05 24.5-25.25L24.5-25.25 24.45-25.55Q24.4-25.45 24.4-25.25L24.4-25.25Q24.4-25.05 24.3-25L24.3-25 24.3-24.8 24.2-24.15Q24.15-23.8 24.08-23.38 24-22.95 23.9-22.45L23.9-22.45 23.65-21.05Q23.1-17.9 23-17.4L23-17.4Q22.95-16.85 22.75-15.75L22.75-15.75Q22.65-15.4 22.55-14.7L22.55-14.7 22.15-12.4 24.7-12.4 25.05-12.5 25.15-12.5Q25.75-12.5 26.05-12.4L26.05-12.4Q26.25-12.4 26.43-12.33 26.6-12.25 26.75-12.2L26.75-12.2ZM59.15 1.15Q54.4 1.15 51.95-1.05L51.95-1.05Q49.9-2.8 49.15-6.65L49.15-6.65Q48.65-9.2 48.65-14.3L48.65-14.3Q48.65-18 49.05-22.4L49.05-22.4Q49.05-23.1 49.15-24.4L49.15-24.4Q49.2-25.45 49.25-27.38 49.3-29.3 49.3-30.75L49.3-30.75Q49.3-31.5 49.2-31.8L49.2-31.8Q49.1-32.5 49.1-32.9L49.1-32.9Q49.1-33.7 50.8-33.7L50.8-33.7 53.8-33.7Q57-33.8 59.95-33.5L59.95-33.5Q62-33.3 63.1-33.05L63.1-33.05Q64.45-32.7 64.9-32.05L64.9-32.05Q65.3-31.3 65.3-29.45L65.3-29.45Q65.3-27.2 65.25-25.33 65.2-23.45 65.15-22L65.15-22Q65.1-21.65 65.1-20.9L65.1-20.9Q65.1-19.9 65-17.5L65-17.5Q64.9-13.1 64.9-10.15L64.9-10.15Q64.9-8.3 65.05-7.45L65.05-7.45Q65.2-6.65 65.85-6.65L65.85-6.65Q67.2-6.65 68.8-7.3L68.8-7.3Q69.8-7.8 70.2-8.05L70.2-8.05 70.2-28.15Q70.05-29.3 70.05-30.4L70.05-30.4Q69.95-30.7 69.95-31.25L69.95-31.25 69.95-31.7Q69.95-32.6 70.3-32.95L70.3-32.95Q70.65-33.25 71.95-33.25L71.95-33.25Q73.4-33.25 75.7-33.4L75.7-33.4Q76.5-33.4 77.9-33.5L77.9-33.5Q78.9-33.5 79.35-33.65L79.35-33.65Q79.65-33.65 80.05-33.55L80.05-33.55Q80.65-33.55 81.05-33.5L81.05-33.5 82.55-33.45Q83.65-33.4 85.3-33.05L85.3-33.05 86.7-32.65Q87.15-32.5 87.27-32.3 87.4-32.1 87.4-31.8L87.4-31.8Q87.4-24.4 87.1-16.95L87.1-16.95Q86.8-7.15 86.8-2.15L86.8-2.15Q86.8-0.15 84.9-0.15L84.9-0.15 82.35-0.15Q81.35-0.05 78.7 0.05L78.7 0.05Q77.2 0.15 76.35 0.15L76.35 0.15 74.05 0.25Q72.7 0.25 72-0.2 71.3-0.65 71.05-1.75L71.05-1.75Q68.35-0.4 65.35 0.4L65.35 0.4Q62.35 1.15 59.15 1.15L59.15 1.15ZM110.3 1.2Q107 1.2 104.8 0.9L104.8 0.9Q101.95 0.5 99.65-0.55L99.65-0.55Q99.35-0.7 98.77-1.03 98.2-1.35 97.8-1.65L97.8-1.65Q96.15-3.05 95.1-4.8L95.1-4.8Q94.25-5.7 93.55-7.3L93.55-7.3Q92.2-10.8 92.2-15.65L92.2-15.65Q92.2-21.35 94.55-25.65L94.55-25.65Q96.6-29.75 100.02-32.08 103.45-34.4 107.8-34.7L107.8-34.7 108.4-34.75 109.05-34.75Q112.95-34.75 117.45-33.15L117.45-33.15Q117.85-32.95 119.2-32.35 120.55-31.75 121.7-31L121.7-31 120.8-24.5 117.85-25.25Q116.25-25.65 114.85-25.65L114.85-25.65Q112.05-25.65 110.65-23.55L110.65-23.55Q109.15-21.35 109.15-16.4L109.15-16.4Q109.15-14.8 109.3-14.15L109.3-14.15Q109.5-11 110.7-9.5L110.7-9.5Q111.85-8.2 113.45-8.2L113.45-8.2Q114.95-8.2 116.8-9.15L116.8-9.15Q118.4-9.9 120.3-11.2L120.3-11.2 120.8-3Q118.85-1.2 115.8 0.05L115.8 0.05Q112.9 1.2 110.3 1.2L110.3 1.2ZM134.99 0.05Q134.29 0.05 133.94-0.9L133.94-0.9Q133.19-2.55 133.19-6.9L133.19-6.9Q133.19-11.1 133.34-16.55L133.34-16.55Q133.39-18.3 133.39-21.95L133.39-21.95 133.24-22.15 127.69-22.15Q127.04-22.15 126.67-22.88 126.29-23.6 126.09-24.9L126.09-24.9Q125.84-26.4 125.84-29.2L125.84-29.2 125.84-29.9Q125.84-30.4 125.89-30.7L125.89-30.7 125.89-31.45 125.89-31.9Q125.89-32.2 126.19-32.43 126.49-32.65 126.89-32.75L126.89-32.75Q127.39-32.9 128.39-32.9L128.39-32.9 132.19-32.9Q133.44-32.9 134.09-32.85L134.09-32.85 135.94-32.8 153.94-32.8Q155.89-32.8 156.49-32.75L156.49-32.75Q156.74-32.7 157.19-32.65 157.64-32.6 157.84-32.45L157.84-32.45Q158.19-32.3 158.27-32.08 158.34-31.85 158.34-31.4L158.34-31.4 158.34-23.15Q158.34-22.6 157.89-22.4L157.89-22.4Q157.59-22.3 157.09-22.3L157.09-22.3 155.49-22.3 153.84-22.3Q152.69-22.3 152.09-22.4L152.09-22.4 150.59-22.4Q150.14-22.4 150.09-22.2L150.09-22.2Q150.09-22.15 150.04-22.08 149.99-22 149.99-21.9L149.99-21.9 149.99-21.15 149.99-19.45Q149.99-18.7 149.94-18.3L149.94-18.3Q149.94-16.85 149.74-11.95L149.74-11.95 149.64-10.45Q149.54-8.35 149.44-7.4L149.44-7.4 149.44-2.65Q149.44-0.95 148.74-0.5L148.74-0.5Q148.09-0.25 147.84-0.2L147.84-0.2 146.59-0.15Q144.64-0.15 143.84-0.05L143.84-0.05 138.59 0Q137.59 0.05 134.99 0.05L134.99 0.05ZM164.49 0.05Q164.14 0.05 163.84-0.23 163.54-0.5 163.39-0.95L163.39-0.95Q163.19-1.85 163.09-2.95L163.09-2.95Q163.04-3.3 163.04-3.9L163.04-3.9 163.04-4.55 163.09-10.75Q163.09-13.9 163.24-16.95L163.24-16.95 163.24-32.75Q163.24-33.25 163.89-33.25L163.89-33.25Q167.34-33.25 169.04-33.3L169.04-33.3 174.04-33.3Q174.19-33.3 174.29-33.35 174.39-33.4 174.54-33.4L174.54-33.4Q175.19-33.5 176.34-33.45L176.34-33.45Q177.19-33.45 178.14-33.3L178.14-33.3Q178.44-33.1 178.59-33.2L178.59-33.2Q178.69-33.2 178.99-33.3L178.99-33.3Q179.74-33.3 180.17-33.2 180.59-33.1 180.84-32.75L180.84-32.75Q181.09-32.3 181.24-31.65L181.24-31.65Q181.29-31.15 181.29-29.55L181.29-29.55 181.29-19.8 181.29-19.05Q181.24-18.65 181.24-17.25L181.24-17.25Q181.24-15.75 181.14-14.9L181.14-14.9 181.09-12.65Q181.04-11.9 181.04-10.75L181.04-10.75 180.99-9.95 180.99-6.75Q180.99-3.75 180.74-1.65L180.74-1.65Q180.74-0.95 180.39-0.25L180.39-0.25Q179.49-0.25 177.79-0.15L177.79-0.15Q176.99-0.15 176.74-0.05L176.74-0.05 176.24-0.05 176.09-0.05Q175.74-0.05 175.74-0.15L175.74-0.15Q175.34-0.25 175.29-0.25L175.29-0.25 174.89-0.05 170.29-0.05Q170.24 0 169.49 0L169.49 0 167.59 0 165.74 0 164.49 0.05ZM205.99 1.2Q200.04 1.2 196.59 0.25L196.59 0.25Q191.79-1 189.29-4.4L189.29-4.4Q186.39-8.45 186.39-15.65L186.39-15.65Q186.39-20.8 187.54-24.4 188.69-28 191.09-30.3L191.09-30.3Q193.49-32.6 197.26-33.68 201.04-34.75 206.49-34.75L206.49-34.75Q210.74-34.75 214.49-33.45L214.49-33.45Q219.09-31.8 221.64-28.4L221.64-28.4Q224.79-24.35 224.79-17.75L224.79-17.75Q224.79-10.05 222.49-5.75L222.49-5.75Q220.19-1.8 215.84-0.15L215.84-0.15Q212.29 1.2 205.99 1.2L205.99 1.2ZM205.59-3.65Q206.19-3.65 206.54-4.4L206.54-4.4Q207.29-6 207.59-9.45L207.59-9.45Q207.89-12.6 207.89-15.4L207.89-15.4 207.89-17.4 207.89-18.65Q207.89-20.85 207.59-24L207.59-24Q207.29-27.4 206.54-29.15L206.54-29.15Q206.14-30 205.59-30L205.59-30Q204.49-30 203.99-27.9L203.99-27.9Q203.49-25 203.49-22.65L203.49-22.65Q203.34-20.65 203.34-16.4L203.34-16.4Q203.34-13.55 203.49-11.7L203.49-11.7Q203.49-9.35 203.99-6.25L203.99-6.25Q204.49-3.65 205.59-3.65L205.59-3.65ZM236.34 0.15Q235.84 0.15 235.49 0.05L235.49 0.05 234.49 0.05 233.69 0.05 233.24 0.05 230.99-0.5 230.84-0.9Q230.79-0.9 230.79-1.45L230.79-1.45Q230.69-2.95 230.69-4.9L230.69-4.9Q230.69-6.3 230.59-7.15L230.59-7.15Q230.59-8.55 230.54-9.25L230.54-9.25 230.54-11Q230.29-13.3 230.24-16.05 230.19-18.8 230.19-21.4L230.19-21.4 230.29-26.5Q230.34-27.35 230.34-29.1L230.34-29.1Q230.34-30.85 230.29-31.7L230.29-31.7Q230.14-32.85 230.94-33.4L230.94-33.4Q231.44-33.65 232.69-33.65L232.69-33.65Q234.54-33.65 237.44-33.75L237.44-33.75 238.54-33.85Q241.54-34.05 242.29-34.05L242.29-34.05Q242.99-34.05 243.29-34L243.29-34Q243.99-33.95 244.24-33.8 244.49-33.65 244.71-33.3 244.94-32.95 245.04-32.75L245.04-32.75Q245.64-31.95 246.24-31.05L246.24-31.05Q247.14-29.7 247.69-28.95L247.69-28.95 250.99-23.9 252.59-21.5Q252.59-22.8 252.69-23.55L252.69-23.55 252.69-28.2 252.84-31.75Q252.89-32.15 252.94-32.3 252.99-32.45 253.09-32.52 253.19-32.6 253.24-32.65L253.24-32.65Q253.84-33.15 254.44-33.4L254.44-33.4Q254.94-33.5 255.24-33.5L255.24-33.5 258.09-33.5 258.69-33.5Q259.09-33.45 260.09-33.45L260.09-33.45Q261.19-33.45 261.84-33.4L261.84-33.4 263.54-33.4 264.94-33.4 265.54-33.4Q266.84-33.4 267.29-33L267.29-33Q267.84-32.6 267.84-31.25L267.84-31.25 267.79-30.75 267.74-29.95Q267.69-29.65 267.69-29.15L267.69-29.15 267.69-28.55 267.69-28.15 267.79-27.65 267.79-26.05Q267.74-25.2 267.74-23.15L267.74-23.15 267.74-19.45Q267.69-18.15 267.69-15.8L267.69-15.8 267.69-12.9 267.69-11.2 267.69-3.3 267.49-1.4Q267.29-0.25 266.69 0L266.69 0 265.84 0.05 264.99 0 262.74 0 259.79 0 256.74 0 255.99 0Q254.99 0.1 254.04-0.25L254.04-0.25Q253.59-0.45 253.04-0.9L253.04-0.9 247.94-8.05Q247.94-8.1 246.84-9.9L246.84-9.9Q246.44-10.5 246.09-10.95L246.09-10.95Q245.99-11.15 245.86-11.28 245.74-11.4 245.69-11.4L245.69-11.4Q245.24-11.4 245.24-11L245.24-11 245.24-9.9Q245.19-9.4 245.19-8.25L245.19-8.25 245.19-6.3 245.19-4.4Q245.09-3.8 245.09-2.9L245.09-2.9 245.09-1.9 245.09-1.15 245.14-0.9Q245.14-0.5 244.74-0.4L244.74-0.4Q244.49-0.2 243.94-0.3L243.94-0.3Q242.24-0.2 241.24-0.1L241.24-0.1Q240.64-0.05 239.14 0.05 237.64 0.15 236.34 0.15L236.34 0.15ZM296.78 0.3Q293.63 0.3 292.08 0.2L292.08 0.2Q289.68 0.1 287.88-0.4L287.88-0.4Q287.68-0.4 287.48-1L287.48-1Q287.33-1.45 287.33-1.7L287.33-1.7 286.38-19.9 286.38-20.9Q286.38-21.25 286.43-22.15 286.48-23.05 286.48-24.55L286.48-24.55 286.58-27.15Q286.58-28.15 286.63-28.65L286.63-28.65Q286.63-30.15 286.73-31.55L286.73-31.55Q286.73-32 286.76-32.18 286.78-32.35 286.78-32.4L286.78-32.4Q286.88-32.45 287.16-32.68 287.43-32.9 287.63-33.05L287.63-33.05Q288.13-33.5 289.08-33.5L289.08-33.5 291.98-33.5 292.78-33.5Q293.28-33.45 294.63-33.45L294.63-33.45Q296.08-33.45 296.98-33.4L296.98-33.4 299.28-33.4 301.13-33.4 301.88-33.4Q303.18-33.4 303.63-33L303.63-33Q304.23-32.55 304.23-31.25L304.23-31.25 304.23-30.75Q304.23-30.55 304.18-30.35 304.13-30.15 304.13-29.95L304.13-29.95 304.03-29.15 303.98-28.55Q303.98-28.35 304.08-28.15L304.08-28.15Q304.13-27.95 304.13-27.65L304.13-27.65Q304.13-26.3 304.08-25.7L304.08-25.7 304.03-23.65 305.33-23.65Q305.98-23.5 306.73-23.5L306.73-23.5Q307.73-23.4 308.13-23.4L308.13-23.4Q308.58-23.3 309.48-23.3L309.48-23.3 309.53-26.7Q309.58-27.15 309.58-28L309.58-28 309.63-30.05 309.63-30.45Q309.63-31.25 309.68-31.88 309.73-32.5 309.88-32.75L309.88-32.75Q310.18-33.15 310.58-33.15L310.58-33.15Q310.88-33.25 311.98-33.25L311.98-33.25 313.33-33.3Q314.78-33.3 315.73-33.4L315.73-33.4 318.58-33.4Q320.58-33.4 321.48-33.45L321.48-33.45Q323.23-33.45 323.88-33.5L323.88-33.5 325.23-33.5Q326.43-33.5 326.83-33.2L326.83-33.2Q327.13-33 327.23-32.63 327.33-32.25 327.33-31.55L327.33-31.55Q327.33-29.6 327.23-26.3L327.23-26.3Q327.03-23.1 327.03-21.15L327.03-21.15Q327.03-20.85 327.13-20.65L327.13-20.65Q327.13-20.45 327.18-20.33 327.23-20.2 327.23-20.15L327.23-20.15 325.98-1.15Q325.98-0.9 325.63-0.45L325.63-0.45Q325.18 0 324.83 0L324.83 0 311.08 0Q310.93 0 310.78-0.25 310.63-0.5 310.53-0.9L310.53-0.9Q310.48-1.15 310.41-1.58 310.33-2 310.28-2.65L310.28-2.65 309.73-11.9 309.38-11.9Q308.03-11.9 307.23-11.95L307.23-11.95Q305.33-12.05 304.88-12.05L304.88-12.05 304.48-12.05Q304.03-12.05 304.03-11.2L304.03-11.2Q304.03-5 303.98-3.3L303.98-3.3Q303.98-2.9 303.83-1.4L303.83-1.4Q303.73-0.25 302.98 0L302.98 0 302.23 0.05Q298.33 0.25 296.78 0.3L296.78 0.3ZM351.98 1.2Q346.03 1.2 342.58 0.25L342.58 0.25Q337.78-1 335.28-4.4L335.28-4.4Q332.38-8.45 332.38-15.65L332.38-15.65Q332.38-20.8 333.53-24.4 334.68-28 337.08-30.3L337.08-30.3Q339.48-32.6 343.25-33.68 347.03-34.75 352.48-34.75L352.48-34.75Q356.73-34.75 360.48-33.45L360.48-33.45Q365.08-31.8 367.63-28.4L367.63-28.4Q370.78-24.35 370.78-17.75L370.78-17.75Q370.78-10.05 368.48-5.75L368.48-5.75Q366.18-1.8 361.83-0.15L361.83-0.15Q358.28 1.2 351.98 1.2L351.98 1.2ZM351.58-3.65Q352.18-3.65 352.53-4.4L352.53-4.4Q353.28-6 353.58-9.45L353.58-9.45Q353.88-12.6 353.88-15.4L353.88-15.4 353.88-17.4 353.88-18.65Q353.88-20.85 353.58-24L353.58-24Q353.28-27.4 352.53-29.15L352.53-29.15Q352.13-30 351.58-30L351.58-30Q350.48-30 349.98-27.9L349.98-27.9Q349.48-25 349.48-22.65L349.48-22.65Q349.33-20.65 349.33-16.4L349.33-16.4Q349.33-13.55 349.48-11.7L349.48-11.7Q349.48-9.35 349.98-6.25L349.98-6.25Q350.48-3.65 351.58-3.65L351.58-3.65ZM386.28 1.15Q381.53 1.15 379.08-1.05L379.08-1.05Q377.03-2.8 376.28-6.65L376.28-6.65Q375.78-9.2 375.78-14.3L375.78-14.3Q375.78-18 376.18-22.4L376.18-22.4Q376.18-23.1 376.28-24.4L376.28-24.4Q376.33-25.45 376.38-27.38 376.43-29.3 376.43-30.75L376.43-30.75Q376.43-31.5 376.33-31.8L376.33-31.8Q376.23-32.5 376.23-32.9L376.23-32.9Q376.23-33.7 377.93-33.7L377.93-33.7 380.93-33.7Q384.13-33.8 387.08-33.5L387.08-33.5Q389.13-33.3 390.23-33.05L390.23-33.05Q391.58-32.7 392.03-32.05L392.03-32.05Q392.43-31.3 392.43-29.45L392.43-29.45Q392.43-27.2 392.38-25.33 392.33-23.45 392.28-22L392.28-22Q392.23-21.65 392.23-20.9L392.23-20.9Q392.23-19.9 392.13-17.5L392.13-17.5Q392.03-13.1 392.03-10.15L392.03-10.15Q392.03-8.3 392.18-7.45L392.18-7.45Q392.33-6.65 392.98-6.65L392.98-6.65Q394.33-6.65 395.93-7.3L395.93-7.3Q396.93-7.8 397.33-8.05L397.33-8.05 397.33-28.15Q397.18-29.3 397.18-30.4L397.18-30.4Q397.08-30.7 397.08-31.25L397.08-31.25 397.08-31.7Q397.08-32.6 397.43-32.95L397.43-32.95Q397.78-33.25 399.08-33.25L399.08-33.25Q400.53-33.25 402.83-33.4L402.83-33.4Q403.63-33.4 405.03-33.5L405.03-33.5Q406.03-33.5 406.48-33.65L406.48-33.65Q406.78-33.65 407.18-33.55L407.18-33.55Q407.78-33.55 408.18-33.5L408.18-33.5 409.68-33.45Q410.78-33.4 412.43-33.05L412.43-33.05 413.83-32.65Q414.28-32.5 414.4-32.3 414.53-32.1 414.53-31.8L414.53-31.8Q414.53-24.4 414.23-16.95L414.23-16.95Q413.93-7.15 413.93-2.15L413.93-2.15Q413.93-0.15 412.03-0.15L412.03-0.15 409.48-0.15Q408.48-0.05 405.83 0.05L405.83 0.05Q404.33 0.15 403.48 0.15L403.48 0.15 401.18 0.25Q399.83 0.25 399.13-0.2 398.43-0.65 398.18-1.75L398.18-1.75Q395.48-0.4 392.48 0.4L392.48 0.4Q389.48 1.15 386.28 1.15L386.28 1.15ZM434.07 1.2Q430.52 1.2 426.92 0.4L426.92 0.4Q423.37-0.45 421.07-1.9L421.07-1.9Q420.47-3.7 420.17-5.5 419.87-7.3 419.42-10.65L419.42-10.65 419.42-10.8Q419.52-11.4 420.07-11.7L420.07-11.7Q421.97-10.55 423.72-9.98 425.47-9.4 427.57-9.4L427.57-9.4 428.77-9.4 429.57-9.35Q430.72-9.35 431.92-9.7L431.92-9.7Q432.57-9.95 432.82-10.65L432.82-10.65 430.17-11.95Q427.12-13.4 424.67-15.05L424.67-15.05Q422.12-16.9 421.02-19.75L421.02-19.75Q420.47-21.3 420.47-23.15L420.47-23.15Q420.47-27.65 423.22-30.4L423.22-30.4Q425.62-32.85 429.72-33.9L429.72-33.9Q433.27-34.75 437.52-34.75L437.52-34.75Q440.02-34.75 444.42-34.2L444.42-34.2Q444.87-34.1 445.67-34L445.67-34 447.17-33.7Q448.87-33.4 449.67-33.4L449.67-33.4Q449.72-33.4 449.85-33.25 449.97-33.1 450.07-33L450.07-33Q450.27-32.65 450.47-32.65L450.47-32.65 450.52-32.65 450.57-32.65 450.67-31.6Q450.67-30.85 450.82-30L450.82-30Q450.97-28.75 450.97-27.3L450.97-27.3Q450.97-26.05 450.82-25.5L450.82-25.5Q450.57-24.5 449.92-24.05L449.92-24.05 445.27-24.65 444.77-24.65 444.07-24.65Q442.37-24.65 440.17-24.3L440.17-24.3 438.52-23.95Q437.92-23.85 437.92-23.75L437.92-23.75Q437.92-22.55 439.47-21.5L439.47-21.5Q440.22-21.1 440.97-20.83 441.72-20.55 441.92-20.45L441.92-20.45Q445.62-19.4 448.32-16.8L448.32-16.8Q449.57-15.6 450.27-14.25 450.97-12.9 450.97-11.65L450.97-11.65Q450.97-10.9 450.77-10.05L450.77-10.05Q450.42-6.3 447.92-3.55L447.92-3.55Q445.47-1.1 441.77 0.05L441.77 0.05Q438.57 1.2 434.07 1.2L434.07 1.2ZM460.32 0Q460.07 0 459.57-0.08 459.07-0.15 458.37-0.2L458.37-0.2 457.32-0.45Q457.07-0.5 456.95-0.58 456.82-0.65 456.87-0.7L456.87-0.7Q456.87-2 456.72-4.15L456.72-4.15Q456.72-4.9 456.67-5.48 456.62-6.05 456.57-6.45L456.57-6.45 456.47-8.6Q456.47-9.45 456.37-10.75L456.37-10.75 456.32-12.3Q456.32-14.2 456.27-15.25L456.27-15.25Q456.22-16.3 456.22-19.65L456.22-19.65Q456.22-22.8 456.27-26.15 456.32-29.5 456.57-32.5L456.57-32.5Q456.57-33.05 457.77-33.4L457.77-33.4Q458.52-33.5 460.27-33.5L460.27-33.5Q464.32-33.5 466.22-33.65L466.22-33.65Q472.12-33.75 475.12-33.75L475.12-33.75 477.32-33.75Q481.42-33.65 483.62-33.45L483.62-33.45Q484.42-33.45 484.77-31.55L484.77-31.55Q484.92-31.2 485.12-29.75L485.12-29.75Q485.27-29 485.52-27.9L485.52-27.9Q485.57-27.6 485.55-27.33 485.52-27.05 485.52-27L485.52-27Q485.47-26.5 484.97-26.5L484.97-26.5Q484.77-26.55 484.37-26.55L484.37-26.55Q482.27-26.55 479.22-26.2L479.22-26.2 476.57-26Q474.92-25.8 473.97-25.75L473.97-25.75Q473.82-25.75 473.57-25.15L473.57-25.15Q473.37-24.5 473.12-22.15L473.12-22.15 473.02-20.9Q473.02-20.25 473.17-20.08 473.32-19.9 473.82-19.9L473.82-19.9 478.27-19.9Q480.22-19.9 482.72-19.65L482.72-19.65 483.32-19.65Q483.97-19.5 484.12-19.15L484.12-19.15Q484.32-18.85 484.37-18.5L484.37-18.5 484.57-14.05 484.57-13.9Q484.57-13.05 482.77-12.9L482.77-12.9Q481.72-12.65 478.77-12.65L478.77-12.65Q476.22-12.65 475.47-12.7L475.47-12.7Q474.02-12.7 473.72-12.65L473.72-12.65Q473.17-12.5 473.02-12.08 472.87-11.65 472.87-10.65L472.87-10.65Q472.87-10 472.77-8.8L472.77-8.8Q472.72-8.2 472.72-6.9L472.72-6.9Q475.97-6.9 477.52-7L477.52-7Q479.22-7.15 482.32-7.15L482.32-7.15Q482.52-7.15 482.72-6.8L482.72-6.8Q482.97-6.3 483.52-4.55L483.52-4.55Q483.82-3.55 484.12-2.05L484.12-2.05Q484.22-1.7 484.22-1.3L484.22-1.3Q484.22-0.25 483.22-0.25L483.22-0.25Q481.92-0.25 479.72-0.15L479.72-0.15Q478.57-0.05 476.12-0.05L476.12-0.05Q470.87-0.05 468.22 0L468.22 0 460.32 0Z" opacity="1" transform="matrix(1,0,0,1,0,0)" fill="#ffffff" class="slogan-text-1" data-fill-palette-color="quaternary" id="text-1"></path></svg></g></svg></g></svg></g></svg></g><g transform="matrix(1,0,0,1,39.116800000000005,0)"><svg viewBox="0 0 126.5664 116.6814794899869" height="116.6814794899869" width="126.5664"><g><svg xmlns="http://www.w3.org/2000/svg" xmlns:xlink="http://www.w3.org/1999/xlink" version="1.1" baseProfile="tiny" x="0" y="0" viewBox="10.660322189331055 17.26099967956543 72.21829223632812 66.57799530029297" overflow="inherit" xml:space="preserve" height="116.6814794899869" width="126.5664" class="icon-icon-0" data-fill-palette-color="quaternary" id="icon-0"><path d="M46.769 20.261c0.547 0 1.095 0.181 1.513 0.542l12.837 11.105c0.306 0.264 0.59 0.39 0.827 0.39 0.413 0 0.686-0.381 0.686-1.082v-2.679c0-1.104 0.896-2 2-2h4.995c1.104 0 2 0.896 2 2v10.46c0 1.104 0.677 2.586 1.513 3.309l6.235 5.394c0.836 0.723 0.617 1.309-0.487 1.309h-5.261c-1.104 0-2 0.793-2 1.771s0 1.771 0 1.771v26.289c0 1.104-0.896 2-2 2H23.912c-1.104 0-2-0.896-2-2v-27.83c0-1.104-0.896-2-2-2h-5.261c-1.104 0-1.323-0.586-0.487-1.309l31.093-26.897C45.674 20.441 46.222 20.261 46.769 20.261M46.769 17.261c-1.291 0-2.525 0.452-3.475 1.272L12.201 45.432c-2.044 1.767-1.537 3.692-1.333 4.24 0.204 0.549 1.08 2.337 3.783 2.337h4.261v26.83c0 2.757 2.243 5 5 5h45.715c2.757 0 5-2.243 5-5V52.55v-0.541h4.261c2.703 0 3.579-1.788 3.783-2.337 0.204-0.548 0.711-2.474-1.334-4.241l-6.234-5.394c-0.19-0.18-0.464-0.779-0.476-1.046V28.537c0-2.757-2.243-5-5-5h-4.995c-2.182 0-4.042 1.405-4.723 3.357l-9.664-8.36C49.294 17.713 48.06 17.261 46.769 17.261L46.769 17.261z" fill="#ffffff" data-fill-palette-color="quaternary"></path></svg></g></svg></g><g></g></svg></g></svg></g></svg></g></svg></g><defs></defs></svg><rect width="512" height="320" fill="none" stroke="none" visibility="hidden"></rect></g></svg></g></svg>